<?xml version="1.0"?>
<svg xmlns="http://www.w3.org/2000/svg" xmlns:xlink="http://www.w3.org/1999/xlink" version="1.1" id="Capa_1" x="0px" y="0px" viewBox="0 0 448 448" style="enable-background:new 0 0 448 448;" xml:space="preserve" width="512px" height="512px" class=""><g><g><g>
	<path d="M384,112c-35.297,0-64,28.711-64,64c0,8.836,7.156,16,16,16s16-7.164,16-16   c0-17.649,14.359-32,32-32s32,14.351,32,32s-14.359,32-32,32H17.266c-8.844,0-16,7.164-16,16c0,8.836,7.156,16,16,16H384   c35.297,0,64-28.711,64-64S419.297,112,384,112z" data-original="#A1A1A1" class="active-path" data-old_color="#B7CEEB" fill="#A1A1A1"/>
	<path d="M16,176h208c35.297,0,64-28.711,64-64s-28.703-64-64-64s-64,28.711-64,64c0,8.836,7.156,16,16,16   s16-7.164,16-16c0-17.649,14.359-32,32-32s32,14.351,32,32s-14.359,32-32,32H16c-8.844,0-16,7.164-16,16S7.156,176,16,176z" data-original="#A1A1A1" class="active-path" data-old_color="#B7CEEB" fill="#A1A1A1"/>
	<path d="M224,272H16c-8.844,0-16,7.164-16,16s7.156,16,16,16h208c17.641,0,32,14.351,32,32s-14.359,32-32,32   s-32-14.351-32-32c0-8.836-7.156-16-16-16s-16,7.164-16,16c0,35.289,28.703,64,64,64s64-28.711,64-64S259.297,272,224,272z" data-original="#A1A1A1" class="active-path" data-old_color="#B7CEEB" fill="#A1A1A1"/>
</g></g></g> </svg>
